<svg width="24" height="24" viewBox="0 0 24 24" fill="none" xmlns="http://www.w3.org/2000/svg"><rect width="24" height="24" fill="none" rx="0" ry="0"></rect><path fill-rule="evenodd" clip-rule="evenodd" d="M7.57563 12.2527C7.34132 12.0184 7.34132 11.6385 7.57563 11.4042L13.5756 5.40416C13.8099 5.16985 14.1898 5.16985 14.4242 5.40416C14.6585 5.63848 14.6585 6.01837 14.4242 6.25269L8.84842 11.8284L14.4242 17.4042C14.6585 17.6385 14.6585 18.0184 14.4242 18.2527C14.1898 18.487 13.81 18.487 13.5756 18.2527L7.57563 12.2527Z" fill="#d79d00"></path><path fill-rule="evenodd" clip-rule="evenodd" d="M7.57563 12.2527C7.34132 12.0184 7.34132 11.6385 7.57563 11.4042L13.5756 5.40416C13.8099 5.16985 14.1898 5.16985 14.4242 5.40416C14.6585 5.63848 14.6585 6.01837 14.4242 6.25269L8.42416 12.2527C8.18984 12.487 7.80995 12.487 7.57563 12.2527Z" fill="#ffffff"></path></svg>